<svg viewBox="0 -26 512 512" xmlns="http://www.w3.org/2000/svg"><path d="m336 350c-5.519531 0-10 4.480469-10 10s4.480469 10 10 10 10-4.480469 10-10-4.480469-10-10-10zm0 0"/><path d="m446 112.058594v-37.058594c0-19.347656-15.648438-35-35-35-6.042969 0-11.730469 1.539062-16.695312 4.246094-4.550782-14.050782-17.757813-24.246094-33.304688-24.246094-6.042969 0-11.730469 1.539062-16.695312 4.246094-4.550782-14.050782-17.757813-24.246094-33.304688-24.246094-9.785156 0-18.640625 4.042969-25 10.539062-6.359375-6.496093-15.214844-10.539062-25-10.539062-19.300781 0-35 15.699219-35 35v47.929688c-14.167969 4.203124-26.617188 12.757812-35.699219 24.6875-28.328125 3.453124-48.546875 6.851562-61.289062 10.3125-15.359375-20.070313-43.082031-25.355469-64.714844-12.882813l-59.339844 34.65625c-3.070312 1.792969-4.957031 5.082031-4.957031 8.636719 0 3.554687 1.886719 6.839844 4.953125 8.636718l59.390625 34.695313c20.175781 11.632813 46.496094 7.945313 62.484375-10.292969 12.222656 3.492188 31.546875 6.878906 59.546875 10.445313 2.855469 4.644531 6.246094 8.941406 10.125 12.816406l34.859375 34.859375c9.441406 9.441406 14.640625 21.996094 14.640625 35.351562v25.148438h-5c-19.300781 0-35 15.699219-35 35 0 13.933594 8.1875 25.988281 20 31.617188v83.382812c0 5.523438 4.476562 10 10 10h200c5.523438 0 10-4.476562 10-10v-83.382812c11.8125-5.628907 20-17.683594 20-31.617188 0-19.300781-15.699219-35-35-35h-5v-27.640625c0-12.378906 2.785156-24.847656 8.050781-36.050781 8.039063-17.085938 11.945313-32.710938 11.949219-47.757813 44.382812-9.070312 66-21.707031 66-38.550781 0-22.429688-42.808594-32.863281-66-37.941406zm-35-52.058594c8.292969 0 15 6.703125 15 15v40c0 8.386719-6.847656 15-15 15-8.269531 0-15-6.730469-15-15v-40c0-8.269531 6.730469-15 15-15zm-50-20c8.269531 0 15 6.730469 15 15v50c0 8.269531-6.730469 15-15 15-8.257812 0-15-6.671875-15-15v-50c0-8.269531 6.730469-15 15-15zm-50-20c8.269531 0 15 6.730469 15 15v49.230469c-5.4375-2.722657-11.5625-4.230469-18-4.230469h-12v-45c0-8.269531 6.730469-15 15-15zm-65 15c0-8.269531 6.730469-15 15-15s15 6.730469 15 15v45h-30zm-68.277344 135.503906c-17.6875-2.441406-31.300781-4.824218-40.726562-7.117187 1.523437-4.835938 2.3125-9.902344 2.3125-15.046875 0-4.0625-.5-8.117188-1.472656-12.046875 9.507812-2.304688 23.324218-4.675781 41.324218-7.089844-2.082031 6.691406-3.160156 13.6875-3.160156 20.796875v5.148438c0 5.160156.589844 10.316406 1.722656 15.355468zm-103.335937 3.871094-44.5625-26.035156 44.511719-25.996094c19.839843-11.4375 44.972656 2.796875 44.972656 25.996094 0 22.863281-24.910156 37.578125-44.921875 26.035156zm171.113281 50.984375-34.859375-34.859375c-3.6875-3.6875-6.757813-7.902344-9.128906-12.527344-3.605469-7.042968-5.511719-14.933594-5.511719-22.820312v-5.152344c0-27.28125 22.035156-50 50-50h62c10.824219 0 20 8.84375 20 20 0 11.027344-8.972656 20-20 20h-59.980469c-5.40625 0-9.835937 4.296875-9.996093 9.703125-.160157 5.402344 4.003906 9.957031 9.402343 10.277344 44.414063 2.65625 66.703125 43.128906 55.878907 77.863281-1.644532 5.273438 1.296874 10.878906 6.570312 12.523438 5.269531 1.644531 10.878906-1.300782 12.519531-6.570313 4.492188-14.410156 4.710938-29.785156 1.082031-43.835937 36.46875-.328126 72.125-3.054688 102.414063-7.804688-.589844 10.996094-3.851563 22.695312-9.941406 35.640625-6.507813 13.855469-9.949219 29.265625-9.949219 44.5625v27.640625h-140v-25.148438c0-18.699218-7.28125-36.273437-20.5-49.492187zm200.5 109.640625c0 8.269531-6.730469 15-15 15h-55c-5.523438 0-10 4.476562-10 10s4.476562 10 10 10h50v70h-180v-70h50c5.523438 0 10-4.476562 10-10s-4.476562-10-10-10h-55c-8.269531 0-15-6.730469-15-15s6.730469-15 15-15h190c8.269531 0 15 6.730469 15 15zm-11.839844-164.523438c-33.425781 6.140626-75.390625 9.523438-118.160156 9.523438-.246094 0-.496094-.003906-.742188-.003906-4.382812-7.59375-9.90625-14.332032-16.328124-19.996094h9.070312c16.386719 0 30.492188-9.90625 36.667969-24.039062 4.914062 2.589843 10.484375 4.039062 16.332031 4.039062 7.5625 0 14.570312-2.421875 20.300781-6.515625 6.1875 9.90625 17.183594 16.515625 29.699219 16.515625 13.066406 0 24.804688-7.335938 30.796875-18.390625 34.820313 7.605469 47.335937 15.398437 49.933594 18.605469-2.371094 3.441406-16.210938 12.675781-57.570313 20.261718zm0 0"/></svg>